<svg width="72" height="89" viewBox="0 0 72 89" fill="none" xmlns="http://www.w3.org/2000/svg">
<path d="M4.03125 39.7031C2.875 39.7031 1.90625 39.3125 1.125 38.5312C0.375 37.75 0 36.7812 0 35.625C0 34.5 0.4375 33.4844 1.3125 32.5781L32.3906 1.40625C32.8594 0.9375 33.3594 0.59375 33.8906 0.375C34.4219 0.125 34.9688 0 35.5312 0C36.125 0 36.6875 0.125 37.2188 0.375C37.75 0.59375 38.2344 0.9375 38.6719 1.40625L69.7969 32.5781C70.6406 33.4844 71.0625 34.5 71.0625 35.625C71.0625 36.7812 70.6719 37.75 69.8906 38.5312C69.1406 39.3125 68.1875 39.7031 67.0312 39.7031C66.4688 39.7031 65.9219 39.6094 65.3906 39.4219C64.8906 39.2344 64.4531 38.9531 64.0781 38.5781L53.3906 28.0781L35.4844 8.48438L17.6719 28.0781L6.98438 38.5781C6.60938 38.9531 6.15625 39.2344 5.625 39.4219C5.125 39.6094 4.59375 39.7031 4.03125 39.7031ZM35.5312 88.5469C34.3125 88.5469 33.3125 88.1562 32.5312 87.375C31.75 86.625 31.3594 85.6406 31.3594 84.4219V22.6875L31.8281 8.71875C31.8281 7.625 32.1719 6.73438 32.8594 6.04688C33.5469 5.35937 34.4375 5.01562 35.5312 5.01562C36.625 5.01562 37.5156 5.35937 38.2031 6.04688C38.8906 6.73438 39.2344 7.625 39.2344 8.71875L39.7031 22.6875V84.4219C39.7031 85.6406 39.3125 86.625 38.5312 87.375C37.75 88.1562 36.75 88.5469 35.5312 88.5469Z" fill="white"/>
</svg>
